HIERARCHY
ROOT Hips
{
	OFFSET 0.00000 0.00000 0.00000
	CHANNELS 6 Xposition Yposition Zposition Zrotation Yrotation Xrotation 
	JOINT LHipJoint
	{
		OFFSET 0 0 0
		CHANNELS 3 Zrotation Yrotation Xrotation
		JOINT LeftHip
		{
			OFFSET 1.75344 -1.53157 0.77399
			CHANNELS 3 Zrotation Yrotation Xrotation
			JOINT LeftKnee
			{
				OFFSET 2.25415 -6.19323 0.00000
				CHANNELS 3 Zrotation Yrotation Xrotation
				JOINT LeftAnkle
				{
					OFFSET 2.30342 -6.32861 0.00000
					CHANNELS 3 Zrotation Yrotation Xrotation
					JOINT LeftToe
					{
						OFFSET 0.10958 -0.30108 1.49206
						CHANNELS 3 Zrotation Yrotation Xrotation
						End Site
						{
							OFFSET 0.00000 -0.00000 0.77783
						}
					}
				}
			}
		}
	}
	JOINT RHipJoint
	{
		OFFSET 0 0 0
		CHANNELS 3 Zrotation Yrotation Xrotation
		JOINT RightHip
		{
			OFFSET -1.81912 -1.53156 0.77399
			CHANNELS 3 Zrotation Yrotation Xrotation
			JOINT RightKnee
			{
				OFFSET -2.22882 -6.12365 0.00000
				CHANNELS 3 Zrotation Yrotation Xrotation
				JOINT RightAnkle
				{
					OFFSET -2.21943 -6.09785 0.00000
					CHANNELS 3 Zrotation Yrotation Xrotation
					JOINT RightToe
					{
						OFFSET -0.18931 -0.52012 1.59379
						CHANNELS 3 Zrotation Yrotation Xrotation
						End Site
						{
							OFFSET -0.00000 -0.00000 0.84686
						}
					}
				}
			}
		}
	}
	JOINT lowerback
	{
		OFFSET 0 0 0
		CHANNELS 3 Zrotation Yrotation Xrotation
		JOINT Chest
		{
			OFFSET -0.00200 1.66634 -0.14248
			CHANNELS 3 Zrotation Yrotation Xrotation
			JOINT Chest2
			{
				OFFSET -0.00875 1.64542 0.09514
				CHANNELS 3 Zrotation Yrotation Xrotation
				JOINT lowerneck
				{
					OFFSET 0 0 0
					CHANNELS 3 Zrotation Yrotation Xrotation
					JOINT Neck
					{
						OFFSET 0.02257 1.59605 0.00839
						CHANNELS 3 Zrotation Yrotation Xrotation
						JOINT Head
						{
							OFFSET -0.10214 1.57530 -0.23335
							CHANNELS 3 Zrotation Yrotation Xrotation
							End Site
							{
								OFFSET -0.03588 1.60717 -0.08062
							}
						}
					}
				}
				JOINT LeftCollar
				{
					OFFSET 0 0 0
					CHANNELS 3 Zrotation Yrotation Xrotation
					JOINT LeftShoulder
					{
						OFFSET 2.54983 1.10186 0.40078
CHANNELS 3 Zrotation Xrotation Yrotation
						JOINT LeftElbow
						{
OFFSET 0 -4.288400 0.000000
CHANNELS 3 Zrotation Xrotation Yrotation
							JOINT LeftWrist
							{
OFFSET 0 -3.065520 -0.000000
CHANNELS 3 Zrotation Xrotation Yrotation
								JOINT lhand
								{
									OFFSET 0 0 0
CHANNELS 3 Zrotation Xrotation Yrotation
									JOINT LFingers
									{
OFFSET 0 -0.753040 0.000000
CHANNELS 3 Zrotation Xrotation Yrotation
										End Site
										{
OFFSET 0 -0.607120 0.000000
										}
									}
								}
								JOINT LThumb
								{
OFFSET 0 0.000000 0.000000
CHANNELS 3 Zrotation Xrotation Yrotation
									End Site
									{
OFFSET 0 -0.616390 0.616390
									}
								}
							}
						}
					}
				}
				JOINT RightCollar
				{
					OFFSET 0 0 0
					CHANNELS 3 Zrotation Yrotation Xrotation
					JOINT RightShoulder
					{
						OFFSET -2.60909 1.35448 0.21802
CHANNELS 3 Zrotation Xrotation Yrotation
						JOINT RightElbow
						{
OFFSET 0 -4.521720 -0.000000
CHANNELS 3 Zrotation Xrotation Yrotation
							JOINT RightWrist
							{
OFFSET 0 -2.891400 0.000000
CHANNELS 3 Zrotation Xrotation Yrotation
								JOINT rhand
								{
									OFFSET 0 0 0
CHANNELS 3 Zrotation Xrotation Yrotation
									JOINT RFingers
									{
OFFSET 0 -0.680540 0.000000
CHANNELS 3 Zrotation Xrotation Yrotation
										End Site
										{
OFFSET 0 -0.548670 0.000000
										}
									}
								}
								JOINT RThumb
								{
OFFSET 0 0.000000 0.000000
CHANNELS 3 Zrotation Xrotation Yrotation
									End Site
									{
OFFSET 0 -0.557050 0.557050
									}
								}
							}
						}
					}
				}
			}
		}
	}
}
MOTION
Frames: 4
Frame Time: 0.008333333333333333
8.449300 15.186100 41.981900 -179.939000 -10.554800 -179.562000 0.000000 0.000000 0.000000 -25.930400 -25.251200 -0.023900 2.283400 9.433100 27.159600 1.289400 10.051900 -27.226000 4.009300 -12.172700 -36.345800 0.000000 0.000000 0.000000 24.464200 13.558800 -0.161900 -1.937700 -8.735200 24.970400 -1.022600 -19.392700 -34.205800 -0.720500 -5.423900 15.121800 2.838000 2.271300 8.101700 -1.076700 3.261100 -3.507700 -3.212400 1.399500 -8.033900 11.297100 17.094100 -1.630600 -8.643200 23.039600 5.612400 -2.907100 11.393700 4.214200 0.000000 0.000000 0.000000 5.531400 9.653200 -41.483500 19.811700 -30.414800 5.435700 4.523200 11.243200 35.674400 0.000000 0.000000 0.000000 -7.125000 0.000000 0.000000 -15.458400 -4.647200 -17.279200 0.000000 0.000000 0.000000 -3.706600 16.074400 47.004200 -19.918200 -30.543700 -5.489700 -11.570400 17.196100 57.444400 0.000000 0.000000 0.000000 7.125000 0.000000 -0.000000 84.783900 76.190300 -70.464000
8.439497 15.186935 41.969319 -180.269541 -10.325463 -179.331341 0.000000 0.000000 0.000000 -26.265567 -25.126032 -0.004384 2.230549 9.330702 26.835350 1.330337 9.610488 -27.183336 4.121679 -12.320388 -36.875425 0.000000 0.000000 0.000000 24.020710 13.665865 -0.467899 -1.993904 -8.853392 25.337676 -1.050515 -19.141478 -34.100949 -0.795745 -5.692723 15.895653 2.473023 2.285296 7.856335 -1.199161 3.220650 -3.442881 -3.115646 1.400788 -7.836089 11.381726 17.064360 -1.554316 -8.734015 22.988820 5.148364 -2.975189 11.376842 4.074753 0.000000 0.000000 0.000000 5.682734 9.431217 -41.947085 19.938977 -30.568773 5.500263 3.586411 11.279644 34.912490 0.000000 0.000000 0.000000 -7.125000 0.000000 0.000000 -15.920047 -3.815387 -17.619507 0.000000 0.000000 0.000000 -3.608838 15.972241 46.875249 -19.899294 -30.520809 -5.480069 -11.372418 17.173593 57.516482 0.000000 0.000000 0.000000 7.125000 0.000000 0.000000 85.063118 76.118818 -70.665582
8.428700 15.187905 41.954675 -179.818973 -9.990350 -179.487352 0.000000 0.000000 0.000000 -25.756188 -24.656392 -0.250644 2.300518 9.465854 27.263832 1.365027 9.652265 -27.463378 4.505099 -12.803759 -38.638318 0.000000 0.000000 0.000000 24.489949 13.658158 -0.115182 -1.916891 -8.690814 24.832848 -0.918717 -19.402175 -33.611404 -0.620332 -5.039928 14.022573 2.908619 2.371283 7.908792 -1.084548 3.398144 -3.352948 -3.262671 1.474093 -7.740868 11.420970 17.017914 -1.362114 -8.780734 22.928349 4.797252 -3.032932 11.357111 3.940946 0.000000 0.000000 0.000000 5.722696 9.360149 -42.228153 19.937789 -30.567280 5.499673 2.870472 11.780472 34.760538 0.000000 0.000000 0.000000 -7.125000 0.000000 0.000000 -16.295167 -3.597187 -18.010892 0.000000 0.000000 0.000000 -3.487347 15.963682 46.395120 -19.920990 -30.546996 -5.491187 -11.877933 17.563333 57.224862 0.000000 0.000000 0.000000 7.125000 0.000000 0.000000 83.900336 76.302245 -69.702584
8.423482 15.186428 41.939795 -179.859633 -9.827558 -179.392499 0.000000 0.000000 0.000000 -25.911913 -24.940271 -0.057290 2.289908 9.445461 27.198934 1.352492 9.965679 -27.612121 4.448995 -12.731976 -38.378126 0.000000 0.000000 0.000000 24.472966 13.876472 -0.083227 -1.924851 -8.707748 24.885406 -0.953999 -19.302937 -33.711408 -0.604416 -4.973282 13.832965 2.790647 2.388366 7.864410 -1.094410 3.405387 -3.350814 -3.205409 1.483878 -7.718019 11.338136 17.127577 -1.391197 -8.588243 23.060912 4.766648 -2.957206 11.427230 3.915814 0.000000 0.000000 0.000000 5.800832 9.399308 -42.393168 20.050685 -30.703337 5.557185 2.088587 12.092517 34.747964 0.000000 0.000000 0.000000 -7.125000 0.000000 0.000000 -16.710321 -3.509853 -18.486402 0.000000 0.000000 0.000000 -3.447443 15.997535 46.282083 -19.901275 -30.523176 -5.481081 -12.113410 17.559787 57.129830 0.000000 0.000000 0.000000 7.125000 0.000000 0.000000 83.520359 76.386624 -69.416529
